<svg width="512" height="512" viewBox="0 0 512 512" fill="none" xmlns="http://www.w3.org/2000/svg">
<rect width="512" height="512" rx="100" fill="white"/>
<path d="M351.048 466.275H161.401C159.922 466.275 158.503 465.642 157.457 464.513C156.411 463.384 155.823 461.853 155.823 460.257V51.0203C155.823 50.0986 156.019 49.1889 156.396 48.3618C156.773 47.5346 157.322 46.8117 157.998 46.2496C158.676 45.6875 159.463 45.3003 160.301 45.1183C161.138 44.9364 162.003 44.9646 162.829 45.2003L352.476 99.3643C353.666 99.7042 354.718 100.46 355.469 101.512C356.219 102.565 356.626 103.856 356.626 105.184V460.257C356.626 461.853 356.038 463.384 354.992 464.513C353.946 465.642 352.527 466.275 351.048 466.275ZM166.979 454.239H345.47V109.818L166.979 58.8437V454.239Z" fill="#212D3D"/>
<path d="M445.871 466.276H351.048C349.568 466.276 348.149 465.642 347.103 464.514C346.057 463.385 345.469 461.854 345.469 460.258V171.384C345.469 169.788 346.057 168.258 347.103 167.129C348.149 166.001 349.568 165.366 351.048 165.366H445.871C447.35 165.366 448.769 166.001 449.815 167.129C450.861 168.258 451.448 169.788 451.448 171.384V460.258C451.448 461.854 450.861 463.385 449.815 464.514C448.769 465.642 447.35 466.276 445.871 466.276ZM356.625 454.24H440.293V177.403H356.625V454.24ZM66.5777 282.541C65.0983 282.541 63.6797 281.906 62.6337 280.778C61.5876 279.649 61 278.119 61 276.523V259.01C61 257.413 61.5876 255.882 62.6337 254.754C63.6797 253.625 65.0983 252.991 66.5777 252.991C68.0571 252.991 69.4757 253.625 70.5217 254.754C71.5677 255.882 72.1554 257.413 72.1554 259.01V276.523C72.1554 278.119 71.5677 279.649 70.5217 280.778C69.4757 281.906 68.0571 282.541 66.5777 282.541Z" fill="#212D3D"/>
<path d="M161.401 466.276H66.5777C65.0983 466.276 63.6797 465.642 62.6337 464.513C61.5876 463.385 61 461.854 61 460.258V378.651C61 377.055 61.5876 375.524 62.6337 374.395C63.6797 373.267 65.0983 372.633 66.5777 372.633C68.0571 372.633 69.4757 373.267 70.5217 374.395C71.5677 375.524 72.1554 377.055 72.1554 378.651V454.239H155.823V117.221H72.1554V216.882C72.1554 218.478 71.5677 220.009 70.5217 221.137C69.4757 222.266 68.0571 222.9 66.5777 222.9C65.0983 222.9 63.6797 222.266 62.6337 221.137C61.5876 220.009 61 218.478 61 216.882V111.203C61 109.606 61.5876 108.075 62.6337 106.947C63.6797 105.818 65.0983 105.184 66.5777 105.184H161.401C162.88 105.184 164.299 105.818 165.345 106.947C166.391 108.075 166.979 109.606 166.979 111.203V460.258C166.979 461.854 166.391 463.385 165.345 464.513C164.299 465.642 162.88 466.276 161.401 466.276Z" fill="#212D3D"/>
<path d="M66.5777 342.541C65.0983 342.541 63.6797 341.907 62.6337 340.778C61.5876 339.65 61 338.119 61 336.522V318.649C61 317.053 61.5876 315.522 62.6337 314.393C63.6797 313.265 65.0983 312.631 66.5777 312.631C68.0571 312.631 69.4757 313.265 70.5217 314.393C71.5677 315.522 72.1554 317.053 72.1554 318.649V336.522C72.1554 338.119 71.5677 339.65 70.5217 340.778C69.4757 341.907 68.0571 342.541 66.5777 342.541ZM161.401 193.452H107.48C106.001 193.452 104.582 192.818 103.536 191.689C102.489 190.561 101.902 189.03 101.902 187.434V155.333C101.902 153.737 102.489 152.206 103.536 151.077C104.582 149.949 106.001 149.315 107.48 149.315H161.401C162.88 149.315 164.299 149.949 165.345 151.077C166.391 152.206 166.979 153.737 166.979 155.333V187.434C166.979 189.03 166.391 190.561 165.345 191.689C164.299 192.818 162.88 193.452 161.401 193.452ZM113.058 181.416H155.823V161.351H113.058V181.416ZM161.401 269.679H107.48C106.001 269.679 104.582 269.044 103.536 267.916C102.489 266.787 101.902 265.257 101.902 263.661V231.565C101.902 229.969 102.489 228.439 103.536 227.31C104.582 226.181 106.001 225.547 107.48 225.547H161.401C162.88 225.547 164.299 226.181 165.345 227.31C166.391 228.439 166.979 229.969 166.979 231.565V263.661C166.979 265.257 166.391 266.787 165.345 267.916C164.299 269.044 162.88 269.679 161.401 269.679ZM113.058 257.642H155.823V237.583H113.058V257.642ZM161.401 345.911H107.48C106.001 345.911 104.582 345.277 103.536 344.148C102.489 343.02 101.902 341.489 101.902 339.893V307.798C101.902 306.202 102.489 304.671 103.536 303.542C104.582 302.414 106.001 301.779 107.48 301.779H161.401C162.88 301.779 164.299 302.414 165.345 303.542C166.391 304.671 166.979 306.202 166.979 307.798V339.893C166.979 341.489 166.391 343.02 165.345 344.148C164.299 345.277 162.88 345.911 161.401 345.911ZM113.058 333.875H155.823V313.816H113.058V333.875ZM161.401 422.144H107.48C106.001 422.144 104.582 421.509 103.536 420.381C102.489 419.252 101.902 417.722 101.902 416.125V384.024C101.902 382.428 102.489 380.897 103.536 379.769C104.582 378.64 106.001 378.006 107.48 378.006H161.401C162.88 378.006 164.299 378.64 165.345 379.769C166.391 380.897 166.979 382.428 166.979 384.024V416.125C166.979 417.722 166.391 419.252 165.345 420.381C164.299 421.509 162.88 422.144 161.401 422.144ZM113.058 410.107H155.823V390.042H113.058V410.107ZM314.094 186.802H280.978C279.499 186.802 278.08 186.168 277.034 185.04C275.988 183.911 275.401 182.38 275.401 180.784V145.054C275.401 143.458 275.988 141.927 277.034 140.798C278.08 139.67 279.499 139.036 280.978 139.036H314.094C315.574 139.036 316.992 139.67 318.038 140.798C319.084 141.927 319.672 143.458 319.672 145.054V180.784C319.672 182.38 319.084 183.911 318.038 185.04C316.992 186.168 315.574 186.802 314.094 186.802ZM286.557 174.766H308.516V151.072H286.557V174.766ZM231.47 186.802H198.354C196.875 186.802 195.456 186.168 194.41 185.04C193.364 183.911 192.776 182.38 192.776 180.784V145.054C192.776 143.458 193.364 141.927 194.41 140.798C195.456 139.67 196.875 139.036 198.354 139.036H231.47C232.949 139.036 234.368 139.67 235.414 140.798C236.46 141.927 237.048 143.458 237.048 145.054V180.784C237.048 182.38 236.46 183.911 235.414 185.04C234.368 186.168 232.949 186.802 231.47 186.802ZM203.932 174.766H225.892V151.072H203.932V174.766ZM314.094 261.47H280.978C279.499 261.47 278.08 260.836 277.034 259.707C275.988 258.579 275.401 257.048 275.401 255.452V219.716C275.401 218.12 275.988 216.589 277.034 215.46C278.08 214.331 279.499 213.698 280.978 213.698H314.094C315.574 213.698 316.992 214.331 318.038 215.46C319.084 216.589 319.672 218.12 319.672 219.716V255.452C319.672 257.048 319.084 258.579 318.038 259.707C316.992 260.836 315.574 261.47 314.094 261.47ZM286.557 249.433H308.516V225.734H286.557V249.433ZM231.47 261.47H198.354C196.875 261.47 195.456 260.836 194.41 259.707C193.364 258.579 192.776 257.048 192.776 255.452V219.716C192.776 218.12 193.364 216.589 194.41 215.46C195.456 214.331 196.875 213.698 198.354 213.698H231.47C232.949 213.698 234.368 214.331 235.414 215.46C236.46 216.589 237.048 218.12 237.048 219.716V255.452C237.048 257.048 236.46 258.579 235.414 259.707C234.368 260.836 232.949 261.47 231.47 261.47ZM203.932 249.433H225.892V225.734H203.932V249.433ZM314.094 336.131H280.978C279.499 336.131 278.08 335.498 277.034 334.369C275.988 333.24 275.401 331.709 275.401 330.113V294.383C275.401 292.787 275.988 291.256 277.034 290.128C278.08 288.999 279.499 288.365 280.978 288.365H314.094C315.574 288.365 316.992 288.999 318.038 290.128C319.084 291.256 319.672 292.787 319.672 294.383V330.113C319.672 331.709 319.084 333.24 318.038 334.369C316.992 335.498 315.574 336.131 314.094 336.131ZM286.557 324.095H308.516V300.402H286.557V324.095ZM231.47 336.131H198.354C196.875 336.131 195.456 335.498 194.41 334.369C193.364 333.24 192.776 331.709 192.776 330.113V294.383C192.776 292.787 193.364 291.256 194.41 290.128C195.456 288.999 196.875 288.365 198.354 288.365H231.47C232.949 288.365 234.368 288.999 235.414 290.128C236.46 291.256 237.048 292.787 237.048 294.383V330.113C237.048 331.709 236.46 333.24 235.414 334.369C234.368 335.498 232.949 336.131 231.47 336.131ZM203.932 324.095H225.892V300.402H203.932V324.095ZM314.094 410.793H280.978C279.499 410.793 278.08 410.159 277.034 409.03C275.988 407.902 275.401 406.371 275.401 404.775V369.045C275.401 367.449 275.988 365.918 277.034 364.79C278.08 363.661 279.499 363.027 280.978 363.027H314.094C315.574 363.027 316.992 363.661 318.038 364.79C319.084 365.918 319.672 367.449 319.672 369.045V404.775C319.672 406.371 319.084 407.902 318.038 409.03C316.992 410.159 315.574 410.793 314.094 410.793ZM286.557 398.757H308.516V375.063H286.557V398.757ZM231.47 410.793H198.354C196.875 410.793 195.456 410.159 194.41 409.03C193.364 407.902 192.776 406.371 192.776 404.775V369.045C192.776 367.449 193.364 365.918 194.41 364.79C195.456 363.661 196.875 363.027 198.354 363.027H231.47C232.949 363.027 234.368 363.661 235.414 364.79C236.46 365.918 237.048 367.449 237.048 369.045V404.775C237.048 406.371 236.46 407.902 235.414 409.03C234.368 410.159 232.949 410.793 231.47 410.793ZM203.932 398.757H225.892V375.063H203.932V398.757ZM421.004 245.606H375.913C374.434 245.606 373.015 244.972 371.969 243.843C370.923 242.715 370.335 241.184 370.335 239.587V211.507C370.335 209.91 370.923 208.38 371.969 207.251C373.015 206.122 374.434 205.489 375.913 205.489H421.004C422.484 205.489 423.902 206.122 424.948 207.251C425.995 208.38 426.583 209.91 426.583 211.507V239.587C426.583 241.184 425.995 242.715 424.948 243.843C423.902 244.972 422.484 245.606 421.004 245.606ZM381.491 233.569H415.427V217.525H381.491V233.569ZM421.004 305.788H375.913C374.434 305.788 373.015 305.154 371.969 304.025C370.923 302.897 370.335 301.366 370.335 299.769V271.689C370.335 270.093 370.923 268.562 371.969 267.433C373.015 266.304 374.434 265.671 375.913 265.671H421.004C422.484 265.671 423.902 266.304 424.948 267.433C425.995 268.562 426.583 270.093 426.583 271.689V299.769C426.583 301.366 425.995 302.897 424.948 304.025C423.902 305.154 422.484 305.788 421.004 305.788ZM381.491 293.751H415.427V277.707H381.491V293.751ZM421.004 365.97H375.913C374.434 365.97 373.015 365.336 371.969 364.207C370.923 363.078 370.335 361.548 370.335 359.952V331.871C370.335 330.275 370.923 328.744 371.969 327.615C373.015 326.486 374.434 325.853 375.913 325.853H421.004C422.484 325.853 423.902 326.486 424.948 327.615C425.995 328.744 426.583 330.275 426.583 331.871V359.952C426.583 361.548 425.995 363.078 424.948 364.207C423.902 365.336 422.484 365.97 421.004 365.97ZM381.491 353.933H415.427V337.889H381.491V353.933ZM421.004 426.152H375.913C374.434 426.152 373.015 425.517 371.969 424.389C370.923 423.26 370.335 421.73 370.335 420.134V392.053C370.335 390.457 370.923 388.926 371.969 387.797C373.015 386.669 374.434 386.034 375.913 386.034H421.004C422.484 386.034 423.902 386.669 424.948 387.797C425.995 388.926 426.583 390.457 426.583 392.053V420.134C426.583 421.73 425.995 423.26 424.948 424.389C423.902 425.517 422.484 426.152 421.004 426.152ZM381.491 414.115H415.427V398.071H381.491V414.115Z" fill="#212D3D"/>
</svg>
