<svg width="512" height="125" viewBox="0 0 512 125" fill="none" xmlns="http://www.w3.org/2000/svg">
<g clip-path="url(#clip0_42_3)">
<path d="M120.952 95.928H127.672C128.568 95.928 129.176 95.768 129.496 95.448C129.816 95.064 129.976 94.456 129.976 93.624V36.024C129.976 35.128 129.816 34.52 129.496 34.2C129.176 33.88 128.568 33.72 127.672 33.72H120.952V30.648H156.664C161.976 30.648 166.84 32.088 171.256 34.968C175.672 37.784 179.16 41.752 181.72 46.872C184.344 51.928 185.656 57.72 185.656 64.248C185.656 70.776 184.344 76.696 181.72 82.008C179.16 87.32 175.64 91.48 171.16 94.488C166.744 97.496 161.912 99 156.664 99H120.952V95.928ZM155.032 95.928C159.128 95.928 162.52 94.52 165.208 91.704C167.96 88.824 169.336 84.664 169.336 79.224V50.424C169.336 44.984 167.96 40.856 165.208 38.04C162.52 35.16 159.128 33.72 155.032 33.72H146.488C145.656 33.72 145.048 33.88 144.664 34.2C144.344 34.52 144.184 35.128 144.184 36.024V93.624C144.184 94.456 144.344 95.064 144.664 95.448C145.048 95.768 145.656 95.928 146.488 95.928H155.032ZM200.069 61.368C199.365 59.384 198.565 57.976 197.669 57.144C196.773 56.248 195.493 55.8 193.829 55.8H192.197V53.496H214.373V55.8H212.549C211.973 55.8 211.493 56.024 211.109 56.472C210.789 56.92 210.629 57.528 210.629 58.296C210.629 58.936 210.821 59.832 211.205 60.984L219.845 85.08L226.853 65.496L225.413 61.368C224.709 59.384 223.941 57.976 223.109 57.144C222.341 56.248 221.285 55.8 219.941 55.8H218.693V53.496H241.061V55.8H238.277C237.701 55.8 237.157 56.024 236.645 56.472C236.197 56.92 235.973 57.528 235.973 58.296C235.973 58.936 236.165 59.832 236.549 60.984L244.229 83.832L251.525 63.576C251.973 62.168 252.197 60.728 252.197 59.256C252.197 58.36 251.877 57.56 251.237 56.856C250.597 56.152 249.797 55.8 248.837 55.8H246.341V53.496H262.661V55.8H260.549C258.373 55.8 256.581 57.784 255.173 61.752L241.349 100.152H238.277L228.197 69.528L217.157 100.152H214.085L200.069 61.368ZM284.712 100.152C280.744 100.152 277.192 99.096 274.056 96.984C270.984 94.808 268.584 91.896 266.856 88.248C265.128 84.6 264.264 80.6 264.264 76.248C264.264 71.768 265.128 67.704 266.856 64.056C268.584 60.408 270.92 57.56 273.864 55.512C276.872 53.4 280.136 52.344 283.656 52.344C287.56 52.344 290.92 53.752 293.736 56.568C296.552 59.32 298.408 62.968 299.304 67.512C299.752 69.56 299.976 72.76 299.976 77.112H276.552C276.552 80.184 276.616 82.616 276.744 84.408C276.872 86.136 277.16 87.832 277.608 89.496C278.184 91.864 279.272 93.752 280.872 95.16C282.536 96.568 284.456 97.272 286.632 97.272C289.768 97.272 292.296 95.896 294.216 93.144C296.136 90.392 297.288 87.16 297.672 83.448H300.168C299.784 87.864 298.344 91.768 295.848 95.16C293.352 98.488 289.64 100.152 284.712 100.152ZM288.84 74.424C288.84 67.704 288.392 62.744 287.496 59.544C286.664 56.28 285.064 54.648 282.696 54.648C280.328 54.648 278.696 56.28 277.8 59.544C276.968 62.744 276.552 67.704 276.552 74.424H288.84ZM307.434 96.696H312.81C313.386 96.696 313.77 96.6 313.962 96.408C314.218 96.152 314.346 95.736 314.346 95.16V34.488C314.346 33.912 314.218 33.528 313.962 33.336C313.77 33.08 313.386 32.952 312.81 32.952H307.434V30.648H325.482V95.16C325.482 95.736 325.578 96.152 325.77 96.408C326.026 96.6 326.442 96.696 327.018 96.696H332.394V99H307.434V96.696ZM340.421 95.928H347.141C347.973 95.928 348.549 95.736 348.869 95.352C349.253 94.904 349.445 94.232 349.445 93.336V36.024C349.445 35.128 349.285 34.52 348.965 34.2C348.645 33.88 348.037 33.72 347.141 33.72H340.421V30.648H372.677V33.72H365.957C365.125 33.72 364.517 33.88 364.133 34.2C363.813 34.52 363.653 35.128 363.653 36.024V93.336C363.653 94.232 363.813 94.904 364.133 95.352C364.517 95.736 365.125 95.928 365.957 95.928H375.653C379.109 95.928 382.053 94.136 384.485 90.552C386.981 86.968 388.837 83.192 390.053 79.224C390.501 77.752 390.981 75.928 391.493 73.752C392.005 71.576 392.325 70.136 392.453 69.432H395.525L394.757 99H340.421V95.928ZM412.989 43.704C411.005 43.704 409.309 43.032 407.901 41.688C406.557 40.28 405.885 38.584 405.885 36.6C405.885 34.552 406.557 32.856 407.901 31.512C409.309 30.168 411.005 29.496 412.989 29.496C415.037 29.496 416.733 30.168 418.077 31.512C419.421 32.856 420.093 34.552 420.093 36.6C420.093 38.584 419.421 40.28 418.077 41.688C416.733 43.032 415.037 43.704 412.989 43.704ZM402.621 96.696H406.269C406.845 96.696 407.229 96.6 407.421 96.408C407.677 96.152 407.805 95.736 407.805 95.16V57.336C407.805 56.76 407.677 56.376 407.421 56.184C407.229 55.928 406.845 55.8 406.269 55.8H402.621V53.496H418.941V95.16C418.941 95.736 419.037 96.152 419.229 96.408C419.485 96.6 419.901 96.696 420.477 96.696H424.125V99H402.621V96.696ZM430.068 96.696H435.444C436.02 96.696 436.404 96.6 436.596 96.408C436.852 96.152 436.98 95.736 436.98 95.16V56.184H430.068V53.496H436.98V48.888C436.98 44.856 437.844 41.4 439.572 38.52C441.364 35.64 443.604 33.496 446.292 32.088C449.044 30.616 451.796 29.88 454.548 29.88C458.068 29.88 460.884 30.936 462.996 33.048C465.108 35.16 466.164 37.848 466.164 41.112C466.164 43.032 465.46 44.696 464.052 46.104C462.708 47.512 461.044 48.216 459.06 48.216C457.588 48.216 456.276 47.736 455.124 46.776C453.972 45.816 453.396 44.536 453.396 42.936C453.396 41.08 454.292 39.352 456.084 37.752C457.172 36.792 457.716 35.768 457.716 34.68C457.716 33.784 457.332 33.144 456.564 32.76C455.86 32.376 455.06 32.184 454.164 32.184C452.564 32.184 451.156 33.144 449.94 35.064C448.724 36.984 448.116 40.248 448.116 44.856V53.496H455.028V56.184H448.116V95.16C448.116 95.736 448.212 96.152 448.404 96.408C448.66 96.6 449.076 96.696 449.652 96.696H455.028V99H430.068V96.696ZM475.246 121.848C472.622 121.848 470.51 121.016 468.91 119.352C467.31 117.752 466.51 115.672 466.51 113.112C466.51 111 467.182 109.144 468.526 107.544C469.87 105.944 471.566 105.144 473.614 105.144C475.15 105.144 476.398 105.592 477.358 106.488C478.382 107.448 478.894 108.6 478.894 109.944C478.894 110.776 478.702 111.544 478.318 112.248C477.998 112.952 477.582 113.528 477.07 113.976C476.174 114.744 475.726 115.576 475.726 116.472C475.726 117.048 475.886 117.56 476.206 118.008C476.59 118.52 477.166 118.776 477.934 118.776C479.022 118.776 479.918 118.104 480.622 116.76C481.39 115.416 482.094 113.72 482.734 111.672L485.902 101.112L469.294 61.368C468.398 59.256 467.566 57.816 466.798 57.048C466.094 56.216 464.942 55.8 463.342 55.8H461.902V53.496H485.422V55.8H482.638C482.062 55.8 481.518 56.024 481.006 56.472C480.558 56.92 480.334 57.528 480.334 58.296C480.334 59 480.558 59.896 481.006 60.984L490.894 84.696L497.134 63.672C497.582 61.88 497.806 60.472 497.806 59.448C497.806 58.488 497.55 57.656 497.038 56.952C496.526 56.184 495.79 55.8 494.83 55.8H492.334V53.496H508.174V55.8H506.062C504.91 55.8 503.79 56.312 502.702 57.336C501.678 58.296 500.878 59.768 500.302 61.752L485.71 110.232C483.47 117.976 479.982 121.848 475.246 121.848Z" fill="black" fill-opacity="0.25"/>
<path d="M117.952 92.928H124.672C125.568 92.928 126.176 92.768 126.496 92.448C126.816 92.064 126.976 91.456 126.976 90.624V33.024C126.976 32.128 126.816 31.52 126.496 31.2C126.176 30.88 125.568 30.72 124.672 30.72H117.952V27.648H153.664C158.976 27.648 163.84 29.088 168.256 31.968C172.672 34.784 176.16 38.752 178.72 43.872C181.344 48.928 182.656 54.72 182.656 61.248C182.656 67.776 181.344 73.696 178.72 79.008C176.16 84.32 172.64 88.48 168.16 91.488C163.744 94.496 158.912 96 153.664 96H117.952V92.928ZM152.032 92.928C156.128 92.928 159.52 91.52 162.208 88.704C164.96 85.824 166.336 81.664 166.336 76.224V47.424C166.336 41.984 164.96 37.856 162.208 35.04C159.52 32.16 156.128 30.72 152.032 30.72H143.488C142.656 30.72 142.048 30.88 141.664 31.2C141.344 31.52 141.184 32.128 141.184 33.024V90.624C141.184 91.456 141.344 92.064 141.664 92.448C142.048 92.768 142.656 92.928 143.488 92.928H152.032ZM197.069 58.368C196.365 56.384 195.565 54.976 194.669 54.144C193.773 53.248 192.493 52.8 190.829 52.8H189.197V50.496H211.373V52.8H209.549C208.973 52.8 208.493 53.024 208.109 53.472C207.789 53.92 207.629 54.528 207.629 55.296C207.629 55.936 207.821 56.832 208.205 57.984L216.845 82.08L223.853 62.496L222.413 58.368C221.709 56.384 220.941 54.976 220.109 54.144C219.341 53.248 218.285 52.8 216.941 52.8H215.693V50.496H238.061V52.8H235.277C234.701 52.8 234.157 53.024 233.645 53.472C233.197 53.92 232.973 54.528 232.973 55.296C232.973 55.936 233.165 56.832 233.549 57.984L241.229 80.832L248.525 60.576C248.973 59.168 249.197 57.728 249.197 56.256C249.197 55.36 248.877 54.56 248.237 53.856C247.597 53.152 246.797 52.8 245.837 52.8H243.341V50.496H259.661V52.8H257.549C255.373 52.8 253.581 54.784 252.173 58.752L238.349 97.152H235.277L225.197 66.528L214.157 97.152H211.085L197.069 58.368ZM281.712 97.152C277.744 97.152 274.192 96.096 271.056 93.984C267.984 91.808 265.584 88.896 263.856 85.248C262.128 81.6 261.264 77.6 261.264 73.248C261.264 68.768 262.128 64.704 263.856 61.056C265.584 57.408 267.92 54.56 270.864 52.512C273.872 50.4 277.136 49.344 280.656 49.344C284.56 49.344 287.92 50.752 290.736 53.568C293.552 56.32 295.408 59.968 296.304 64.512C296.752 66.56 296.976 69.76 296.976 74.112H273.552C273.552 77.184 273.616 79.616 273.744 81.408C273.872 83.136 274.16 84.832 274.608 86.496C275.184 88.864 276.272 90.752 277.872 92.16C279.536 93.568 281.456 94.272 283.632 94.272C286.768 94.272 289.296 92.896 291.216 90.144C293.136 87.392 294.288 84.16 294.672 80.448H297.168C296.784 84.864 295.344 88.768 292.848 92.16C290.352 95.488 286.64 97.152 281.712 97.152ZM285.84 71.424C285.84 64.704 285.392 59.744 284.496 56.544C283.664 53.28 282.064 51.648 279.696 51.648C277.328 51.648 275.696 53.28 274.8 56.544C273.968 59.744 273.552 64.704 273.552 71.424H285.84ZM304.434 93.696H309.81C310.386 93.696 310.77 93.6 310.962 93.408C311.218 93.152 311.346 92.736 311.346 92.16V31.488C311.346 30.912 311.218 30.528 310.962 30.336C310.77 30.08 310.386 29.952 309.81 29.952H304.434V27.648H322.482V92.16C322.482 92.736 322.578 93.152 322.77 93.408C323.026 93.6 323.442 93.696 324.018 93.696H329.394V96H304.434V93.696ZM337.421 92.928H344.141C344.973 92.928 345.549 92.736 345.869 92.352C346.253 91.904 346.445 91.232 346.445 90.336V33.024C346.445 32.128 346.285 31.52 345.965 31.2C345.645 30.88 345.037 30.72 344.141 30.72H337.421V27.648H369.677V30.72H362.957C362.125 30.72 361.517 30.88 361.133 31.2C360.813 31.52 360.653 32.128 360.653 33.024V90.336C360.653 91.232 360.813 91.904 361.133 92.352C361.517 92.736 362.125 92.928 362.957 92.928H372.653C376.109 92.928 379.053 91.136 381.485 87.552C383.981 83.968 385.837 80.192 387.053 76.224C387.501 74.752 387.981 72.928 388.493 70.752C389.005 68.576 389.325 67.136 389.453 66.432H392.525L391.757 96H337.421V92.928ZM409.989 40.704C408.005 40.704 406.309 40.032 404.901 38.688C403.557 37.28 402.885 35.584 402.885 33.6C402.885 31.552 403.557 29.856 404.901 28.512C406.309 27.168 408.005 26.496 409.989 26.496C412.037 26.496 413.733 27.168 415.077 28.512C416.421 29.856 417.093 31.552 417.093 33.6C417.093 35.584 416.421 37.28 415.077 38.688C413.733 40.032 412.037 40.704 409.989 40.704ZM399.621 93.696H403.269C403.845 93.696 404.229 93.6 404.421 93.408C404.677 93.152 404.805 92.736 404.805 92.16V54.336C404.805 53.76 404.677 53.376 404.421 53.184C404.229 52.928 403.845 52.8 403.269 52.8H399.621V50.496H415.941V92.16C415.941 92.736 416.037 93.152 416.229 93.408C416.485 93.6 416.901 93.696 417.477 93.696H421.125V96H399.621V93.696ZM427.068 93.696H432.444C433.02 93.696 433.404 93.6 433.596 93.408C433.852 93.152 433.98 92.736 433.98 92.16V53.184H427.068V50.496H433.98V45.888C433.98 41.856 434.844 38.4 436.572 35.52C438.364 32.64 440.604 30.496 443.292 29.088C446.044 27.616 448.796 26.88 451.548 26.88C455.068 26.88 457.884 27.936 459.996 30.048C462.108 32.16 463.164 34.848 463.164 38.112C463.164 40.032 462.46 41.696 461.052 43.104C459.708 44.512 458.044 45.216 456.06 45.216C454.588 45.216 453.276 44.736 452.124 43.776C450.972 42.816 450.396 41.536 450.396 39.936C450.396 38.08 451.292 36.352 453.084 34.752C454.172 33.792 454.716 32.768 454.716 31.68C454.716 30.784 454.332 30.144 453.564 29.76C452.86 29.376 452.06 29.184 451.164 29.184C449.564 29.184 448.156 30.144 446.94 32.064C445.724 33.984 445.116 37.248 445.116 41.856V50.496H452.028V53.184H445.116V92.16C445.116 92.736 445.212 93.152 445.404 93.408C445.66 93.6 446.076 93.696 446.652 93.696H452.028V96H427.068V93.696ZM472.246 118.848C469.622 118.848 467.51 118.016 465.91 116.352C464.31 114.752 463.51 112.672 463.51 110.112C463.51 108 464.182 106.144 465.526 104.544C466.87 102.944 468.566 102.144 470.614 102.144C472.15 102.144 473.398 102.592 474.358 103.488C475.382 104.448 475.894 105.6 475.894 106.944C475.894 107.776 475.702 108.544 475.318 109.248C474.998 109.952 474.582 110.528 474.07 110.976C473.174 111.744 472.726 112.576 472.726 113.472C472.726 114.048 472.886 114.56 473.206 115.008C473.59 115.52 474.166 115.776 474.934 115.776C476.022 115.776 476.918 115.104 477.622 113.76C478.39 112.416 479.094 110.72 479.734 108.672L482.902 98.112L466.294 58.368C465.398 56.256 464.566 54.816 463.798 54.048C463.094 53.216 461.942 52.8 460.342 52.8H458.902V50.496H482.422V52.8H479.638C479.062 52.8 478.518 53.024 478.006 53.472C477.558 53.92 477.334 54.528 477.334 55.296C477.334 56 477.558 56.896 478.006 57.984L487.894 81.696L494.134 60.672C494.582 58.88 494.806 57.472 494.806 56.448C494.806 55.488 494.55 54.656 494.038 53.952C493.526 53.184 492.79 52.8 491.83 52.8H489.334V50.496H505.174V52.8H503.062C501.91 52.8 500.79 53.312 499.702 54.336C498.678 55.296 497.878 56.768 497.302 58.752L482.71 107.232C480.47 114.976 476.982 118.848 472.246 118.848Z" fill="#394E6A"/>
<path d="M42.3414 58.8676H43.8005C44.6751 58.8676 45.3917 58.1512 45.3917 57.2776V55.8173C45.3917 54.9426 44.6753 54.2251 43.8005 54.2251H42.3414C41.4667 54.2251 40.7492 54.9426 40.7492 55.8173V57.2776C40.7492 58.1512 41.4667 58.8676 42.3414 58.8676ZM48.5728 65.1003H50.032C50.9067 65.1003 51.6231 64.3837 51.6231 63.5089V62.0487C51.6231 61.1763 50.9067 60.4587 50.032 60.4587H48.5728C47.6983 60.4587 46.9817 61.1763 46.9817 62.0487V63.5089C46.9817 64.3837 47.6983 65.1003 48.5728 65.1003ZM48.5728 58.8676H50.032C50.9067 58.8676 51.6231 58.1512 51.6231 57.2776V55.8173C51.6231 54.9426 50.9067 54.2251 50.032 54.2251H48.5728C47.6983 54.2251 46.9817 54.9426 46.9817 55.8173V57.2776C46.9817 58.1512 47.6983 58.8676 48.5728 58.8676ZM42.3414 65.1003H43.8005C44.6751 65.1003 45.3917 64.3837 45.3917 63.5089V62.0487C45.3917 61.1763 44.6753 60.4587 43.8005 60.4587H42.3414C41.4667 60.4587 40.7492 61.1763 40.7492 62.0487V63.5089C40.7492 64.3837 41.4667 65.1003 42.3414 65.1003ZM77.6617 72.8367H76.0587C75.0945 72.8367 74.3072 73.6251 74.3072 74.5881V76.1945C74.3072 77.1551 75.0945 77.9426 76.0587 77.9426H77.6617C78.6259 77.9426 79.4133 77.1553 79.4133 76.1945V74.5881C79.4133 73.6251 78.6259 72.8367 77.6617 72.8367ZM82.9117 84.7979H84.5169C85.4787 84.7979 86.2683 84.0093 86.2683 83.0476V81.4412C86.2683 80.4815 85.4787 79.6931 84.5169 79.6931H82.9117C81.9498 79.6931 81.1625 80.4815 81.1625 81.4412V83.0476C81.1625 84.0093 81.9498 84.7979 82.9117 84.7979ZM82.9117 77.9426H84.5169C85.4787 77.9426 86.2683 77.1553 86.2683 76.1945V74.5881C86.2683 73.6251 85.4787 72.8367 84.5169 72.8367H82.9117C81.9498 72.8367 81.1625 73.6251 81.1625 74.5881V76.1945C81.1625 77.1553 81.9498 77.9426 82.9117 77.9426ZM77.6617 79.6931H76.0587C75.0945 79.6931 74.3072 80.4815 74.3072 81.4412V83.0476C74.3072 84.0093 75.0945 84.7979 76.0587 84.7979H77.6617C78.6259 84.7979 79.4133 84.0093 79.4133 83.0476V81.4412C79.4133 80.4815 78.6259 79.6931 77.6617 79.6931ZM32.3933 81.1957H31.1086C30.3366 81.1957 29.7061 81.8271 29.7061 82.5982V83.8862C29.7061 84.6551 30.3364 85.2863 31.1086 85.2863H32.3933C33.1655 85.2863 33.7969 84.6551 33.7969 83.8862V82.5982C33.7969 81.8271 33.1655 81.1957 32.3933 81.1957ZM36.5986 90.7784H37.8855C38.6575 90.7784 39.288 90.147 39.288 89.3759V88.0892C39.288 87.3203 38.6576 86.6889 37.8855 86.6889H36.5986C35.8286 86.6889 35.1983 87.3203 35.1983 88.0892V89.3759C35.1983 90.147 35.8286 90.7784 36.5986 90.7784ZM36.5986 85.2863H37.8855C38.6575 85.2863 39.288 84.6551 39.288 83.8862V82.5982C39.288 81.8271 38.6576 81.1957 37.8855 81.1957H36.5986C35.8286 81.1957 35.1983 81.8271 35.1983 82.5982V83.8862C35.1983 84.6551 35.8286 85.2863 36.5986 85.2863ZM32.3933 86.6889H31.1086C30.3366 86.6889 29.7061 87.3203 29.7061 88.0892V89.3759C29.7061 90.147 30.3364 90.7784 31.1086 90.7784H32.3933C33.1655 90.7784 33.7969 90.147 33.7969 89.3759V88.0892C33.7969 87.3203 33.1655 86.6889 32.3933 86.6889Z" fill="#394E6A"/>
<path d="M11.8888 88.7008L57.3845 114.966C57.7236 115.163 58.1089 115.266 58.5011 115.266C58.8861 115.266 59.2705 115.166 59.6173 114.966L105.111 88.7008C105.451 88.5048 105.733 88.2227 105.929 87.8831C106.125 87.5434 106.228 87.1582 106.228 86.766V34.234C106.228 33.4357 105.802 32.6983 105.111 32.2993L59.6173 6.03366C59.2779 5.8376 58.8929 5.73437 58.5009 5.73438C58.109 5.73438 57.7239 5.8376 57.3845 6.03366L11.8888 32.2993C11.5493 32.4955 11.2674 32.7775 11.0714 33.1171C10.8754 33.4567 10.7721 33.8419 10.772 34.234V86.766C10.772 87.5644 11.1984 88.3016 11.8888 88.7008ZM58.5013 110.453L19.8661 88.1479L34.497 73.518L66.6995 105.72L58.5013 110.453ZM101.761 85.4772L70.7039 103.408L52.8652 85.5674L80.2878 58.1455L101.761 79.6185V85.4772ZM15.2389 35.523L58.5013 10.5471L101.761 35.523V73.3021L81.867 53.4071C80.9945 52.5348 79.5791 52.5348 78.7087 53.4071L71.5917 60.523L47.7658 36.6954C46.9283 35.8579 45.445 35.8579 44.6075 36.6954L15.2389 66.064V35.523ZM15.2389 72.3805L46.1867 41.4338L68.4334 63.6812L49.7069 82.4093L36.0761 68.7796C35.2038 67.9071 33.7892 67.9071 32.9178 68.7796L15.8616 85.8358L15.2389 85.4771V72.3805Z" fill="#394E6A"/>
</g>
<defs>
<clipPath id="clip0_42_3">
<rect width="512" height="125" fill="white"/>
</clipPath>
</defs>
</svg>
