<svg width="450" height="99" viewBox="0 0 450 99" fill="none" xmlns="http://www.w3.org/2000/svg">
<g clip-path="url(#clip0_42_3)">
<path d="M98.112 89V86.93H105.702C109.612 86.93 113.177 86.309 116.397 85.067C119.663 83.779 122.492 81.985 124.884 79.685C127.276 77.385 129.116 74.671 130.404 71.543C131.738 68.415 132.405 64.988 132.405 61.262C132.405 57.536 131.738 54.109 130.404 50.981C129.116 47.853 127.276 45.139 124.884 42.839C122.492 40.539 119.663 38.768 116.397 37.526C113.177 36.238 109.612 35.594 105.702 35.594H98.112V33.524H105.771C109.957 33.524 113.798 34.214 117.294 35.594C120.79 36.974 123.826 38.906 126.402 41.39C128.978 43.874 130.979 46.795 132.405 50.153C133.831 53.511 134.544 57.214 134.544 61.262C134.544 65.31 133.831 69.036 132.405 72.44C130.979 75.798 128.978 78.719 126.402 81.203C123.826 83.687 120.79 85.619 117.294 86.999C113.798 88.333 109.957 89 105.771 89H98.112ZM93.558 89V33.524H95.628V89H93.558ZM84.45 89V33.524H86.52V89H84.45ZM89.004 89V33.524H91.074V89H89.004ZM98.112 84.446V82.376H105.702C110.072 82.376 113.913 81.479 117.225 79.685C120.537 77.891 123.136 75.407 125.022 72.233C126.908 69.013 127.851 65.356 127.851 61.262C127.851 57.122 126.908 53.465 125.022 50.291C123.136 47.117 120.537 44.633 117.225 42.839C113.913 41.045 110.072 40.148 105.702 40.148H98.112V38.078H105.771C110.509 38.078 114.695 39.09 118.329 41.114C121.963 43.092 124.815 45.829 126.885 49.325C128.955 52.775 129.99 56.754 129.99 61.262C129.99 65.77 128.955 69.772 126.885 73.268C124.815 76.764 121.963 79.501 118.329 81.479C114.695 83.457 110.509 84.446 105.771 84.446H98.112ZM98.112 79.892V77.822H105.702C109.198 77.822 112.257 77.132 114.879 75.752C117.501 74.372 119.548 72.44 121.02 69.956C122.492 67.426 123.228 64.528 123.228 61.262C123.228 57.95 122.492 55.052 121.02 52.568C119.548 50.084 117.501 48.152 114.879 46.772C112.257 45.392 109.198 44.702 105.702 44.702H98.112V42.632H105.771C109.635 42.632 113.039 43.437 115.983 45.047C118.927 46.611 121.227 48.796 122.883 51.602C124.539 54.362 125.367 57.582 125.367 61.262C125.367 64.942 124.539 68.185 122.883 70.991C121.227 73.797 118.927 75.982 115.983 77.546C113.039 79.11 109.635 79.892 105.771 79.892H98.112ZM158.53 89L144.592 33.524H146.731L160.669 89H158.53ZM149.146 89L135.208 33.524H137.347L151.285 89H149.146ZM153.838 89L139.9 33.524H142.039L155.977 89H153.838ZM161.98 83.894L160.876 79.547L172.468 33.524H174.607L161.98 83.894ZM159.565 74.648L158.53 70.439L167.776 33.524H169.915L159.565 74.648ZM157.219 65.264L156.253 60.917L163.084 33.524H165.223L157.219 65.264ZM186.889 83.756L185.854 79.478L197.377 33.524H199.516L186.889 83.756ZM184.612 74.372L183.577 70.094L192.685 33.524H194.824L184.612 74.372ZM182.197 64.988L181.162 60.71L187.993 33.524H190.132L182.197 64.988ZM183.508 89L173.365 48.773L174.469 44.426L185.647 89H183.508ZM178.885 89L171.088 57.881L172.123 53.672L181.024 89H178.885ZM174.193 89L168.673 67.196L169.777 62.849L176.332 89H174.193ZM213.432 89V33.524H215.502V89H213.432ZM204.324 89V33.524H206.394V89H204.324ZM208.878 89V33.524H210.948V89H208.878ZM217.986 35.594V33.524H245.517V35.594H217.986ZM217.986 40.148V38.078H245.517V40.148H217.986ZM217.986 44.702V42.632H245.517V44.702H217.986ZM217.986 57.743V55.673H241.584V57.743H217.986ZM217.986 62.297V60.227H241.584V62.297H217.986ZM217.986 66.851V64.781H241.584V66.851H217.986ZM217.986 79.892V77.822H245.517V79.892H217.986ZM217.986 84.446V82.376H245.517V84.446H217.986ZM217.986 89V86.93H245.517V89H217.986ZM260.128 89V33.524H262.198V89H260.128ZM251.02 89V33.524H253.09V89H251.02ZM255.574 89V33.524H257.644V89H255.574ZM264.682 79.892V77.822H288.28V79.892H264.682ZM264.682 84.446V82.376H288.28V84.446H264.682ZM264.682 89V86.93H288.28V89H264.682ZM301.771 89V33.524H303.841V89H301.771ZM292.663 89V33.524H294.733V89H292.663ZM297.217 89V33.524H299.287V89H297.217ZM306.325 79.892V77.822H329.923V79.892H306.325ZM306.325 84.446V82.376H329.923V84.446H306.325ZM306.325 89V86.93H329.923V89H306.325ZM343.413 89V33.524H345.483V89H343.413ZM334.305 89V33.524H336.375V89H334.305ZM338.859 89V33.524H340.929V89H338.859ZM361.472 89V33.524H363.542V89H361.472ZM352.364 89V33.524H354.434V89H352.364ZM356.918 89V33.524H358.988V89H356.918ZM366.026 35.594V33.524H393.557V35.594H366.026ZM366.026 40.148V38.078H393.557V40.148H366.026ZM366.026 44.702V42.632H393.557V44.702H366.026ZM366.026 57.743V55.673H389.624V57.743H366.026ZM366.026 62.297V60.227H389.624V62.297H366.026ZM366.026 66.851V64.781H389.624V66.851H366.026ZM408.168 89V33.524H410.238V89H408.168ZM399.06 89V33.524H401.13V89H399.06ZM403.614 89V33.524H405.684V89H403.614ZM412.722 35.594V33.524H440.253V35.594H412.722ZM412.722 40.148V38.078H440.253V40.148H412.722ZM412.722 44.702V42.632H440.253V44.702H412.722ZM412.722 57.743V55.673H436.32V57.743H412.722ZM412.722 62.297V60.227H436.32V62.297H412.722ZM412.722 66.851V64.781H436.32V66.851H412.722ZM412.722 79.892V77.822H440.253V79.892H412.722ZM412.722 84.446V82.376H440.253V84.446H412.722ZM412.722 89V86.93H440.253V89H412.722Z" fill="#DBEAFE"/>
<path d="M63.4595 88.7837H28.5405C28.2682 88.7837 28.0069 88.667 27.8143 88.4592C27.6217 88.2514 27.5135 87.9695 27.5135 87.6756V12.3243C27.5135 12.1546 27.5496 11.9871 27.619 11.8348C27.6884 11.6825 27.7894 11.5494 27.914 11.4459C28.0387 11.3424 28.1837 11.2711 28.3379 11.2376C28.4921 11.2041 28.6514 11.2093 28.8035 11.2527L63.7224 21.2257C63.9415 21.2883 64.1352 21.4274 64.2735 21.6212C64.4117 21.815 64.4866 22.0527 64.4865 22.2973V87.6756C64.4865 87.9695 64.3783 88.2514 64.1857 88.4592C63.9931 88.667 63.7319 88.7837 63.4595 88.7837ZM29.5676 86.5675H62.4324V23.1505L29.5676 13.7648V86.5675Z" fill="#DBEAFE"/>
<path d="M80.9189 88.7838H63.4595C63.1871 88.7838 62.9258 88.6671 62.7332 88.4593C62.5406 88.2515 62.4324 87.9696 62.4324 87.6757V34.4865C62.4324 34.1926 62.5406 33.9108 62.7332 33.703C62.9258 33.4952 63.1871 33.3784 63.4595 33.3784H80.9189C81.1913 33.3784 81.4525 33.4952 81.6451 33.703C81.8377 33.9108 81.9459 34.1926 81.9459 34.4865V87.6757C81.9459 87.9696 81.8377 88.2515 81.6451 88.4593C81.4525 88.6671 81.1913 88.7838 80.9189 88.7838ZM64.4865 86.5676H79.8919V35.5946H64.4865V86.5676ZM11.0811 54.9533C10.8087 54.9533 10.5475 54.8365 10.3549 54.6287C10.1623 54.4209 10.0541 54.1391 10.0541 53.8452V50.6206C10.0541 50.3267 10.1623 50.0448 10.3549 49.837C10.5475 49.6292 10.8087 49.5125 11.0811 49.5125C11.3535 49.5125 11.6147 49.6292 11.8073 49.837C11.9999 50.0448 12.1081 50.3267 12.1081 50.6206V53.8452C12.1081 54.1391 11.9999 54.4209 11.8073 54.6287C11.6147 54.8365 11.3535 54.9533 11.0811 54.9533Z" fill="#DBEAFE"/>
<path d="M28.5405 88.7839H11.0811C10.8087 88.7839 10.5475 88.6671 10.3549 88.4593C10.1623 88.2515 10.0541 87.9696 10.0541 87.6757V72.6498C10.0541 72.3559 10.1623 72.0741 10.3549 71.8662C10.5475 71.6584 10.8087 71.5417 11.0811 71.5417C11.3535 71.5417 11.6147 71.6584 11.8073 71.8662C11.9999 72.0741 12.1081 72.3559 12.1081 72.6498V86.5676H27.5135V24.5136H12.1081V42.8639C12.1081 43.1577 11.9999 43.4396 11.8073 43.6474C11.6147 43.8552 11.3535 43.972 11.0811 43.972C10.8087 43.972 10.5475 43.8552 10.3549 43.6474C10.1623 43.4396 10.0541 43.1577 10.0541 42.8639V23.4055C10.0541 23.1116 10.1623 22.8297 10.3549 22.6219C10.5475 22.4141 10.8087 22.2974 11.0811 22.2974H28.5405C28.8129 22.2974 29.0742 22.4141 29.2668 22.6219C29.4594 22.8297 29.5676 23.1116 29.5676 23.4055V87.6757C29.5676 87.9696 29.4594 88.2515 29.2668 88.4593C29.0742 88.6671 28.8129 88.7839 28.5405 88.7839Z" fill="#DBEAFE"/>
<path d="M11.0811 66.0009C10.8087 66.0009 10.5475 65.8842 10.3549 65.6764C10.1623 65.4686 10.0541 65.1867 10.0541 64.8928V61.6018C10.0541 61.3079 10.1623 61.026 10.3549 60.8182C10.5475 60.6104 10.8087 60.4937 11.0811 60.4937C11.3535 60.4937 11.6147 60.6104 11.8073 60.8182C11.9999 61.026 12.1081 61.3079 12.1081 61.6018V64.8928C12.1081 65.1867 11.9999 65.4686 11.8073 65.6764C11.6147 65.8842 11.3535 66.0009 11.0811 66.0009ZM28.5405 38.5498H18.6123C18.3399 38.5498 18.0787 38.433 17.8861 38.2252C17.6934 38.0174 17.5852 37.7356 17.5852 37.4417V31.531C17.5852 31.2371 17.6934 30.9553 17.8861 30.7475C18.0787 30.5397 18.3399 30.4229 18.6123 30.4229H28.5405C28.8129 30.4229 29.0742 30.5397 29.2668 30.7475C29.4594 30.9553 29.5676 31.2371 29.5676 31.531V37.4417C29.5676 37.7356 29.4594 38.0174 29.2668 38.2252C29.0742 38.433 28.8129 38.5498 28.5405 38.5498ZM19.6393 36.3336H27.5135V32.6391H19.6393V36.3336ZM28.5405 52.5851H18.6123C18.3399 52.5851 18.0787 52.4683 17.8861 52.2605C17.6934 52.0527 17.5852 51.7709 17.5852 51.477V45.5674C17.5852 45.2735 17.6934 44.9917 17.8861 44.7839C18.0787 44.5761 18.3399 44.4593 18.6123 44.4593H28.5405C28.8129 44.4593 29.0742 44.5761 29.2668 44.7839C29.4594 44.9917 29.5676 45.2735 29.5676 45.5674V51.477C29.5676 51.7709 29.4594 52.0527 29.2668 52.2605C29.0742 52.4683 28.8129 52.5851 28.5405 52.5851ZM19.6393 50.3689H27.5135V46.6755H19.6393V50.3689ZM28.5405 66.6215H18.6123C18.3399 66.6215 18.0787 66.5047 17.8861 66.2969C17.6934 66.0891 17.5852 65.8073 17.5852 65.5134V59.6038C17.5852 59.31 17.6934 59.0281 17.8861 58.8203C18.0787 58.6125 18.3399 58.4957 18.6123 58.4957H28.5405C28.8129 58.4957 29.0742 58.6125 29.2668 58.8203C29.4594 59.0281 29.5676 59.31 29.5676 59.6038V65.5134C29.5676 65.8073 29.4594 66.0891 29.2668 66.2969C29.0742 66.5047 28.8129 66.6215 28.5405 66.6215ZM19.6393 64.4053H27.5135V60.7119H19.6393V64.4053ZM28.5405 80.6579H18.6123C18.3399 80.6579 18.0787 80.5411 17.8861 80.3333C17.6934 80.1255 17.5852 79.8437 17.5852 79.5498V73.6391C17.5852 73.3452 17.6934 73.0634 17.8861 72.8556C18.0787 72.6478 18.3399 72.531 18.6123 72.531H28.5405C28.8129 72.531 29.0742 72.6478 29.2668 72.8556C29.4594 73.0634 29.5676 73.3452 29.5676 73.6391V79.5498C29.5676 79.8437 29.4594 80.1255 29.2668 80.3333C29.0742 80.5411 28.8129 80.6579 28.5405 80.6579ZM19.6393 78.4417H27.5135V74.7472H19.6393V78.4417ZM56.6554 37.3253H50.5579C50.2856 37.3253 50.0243 37.2086 49.8317 37.0008C49.6391 36.793 49.5309 36.5111 49.5309 36.2172V29.6384C49.5309 29.3445 49.6391 29.0626 49.8317 28.8548C50.0243 28.647 50.2856 28.5303 50.5579 28.5303H56.6554C56.9278 28.5303 57.189 28.647 57.3816 28.8548C57.5742 29.0626 57.6824 29.3445 57.6824 29.6384V36.2172C57.6824 36.5111 57.5742 36.793 57.3816 37.0008C57.189 37.2086 56.9278 37.3253 56.6554 37.3253ZM51.585 35.1091H55.6284V30.7465H51.585V35.1091ZM41.4421 37.3253H35.3446C35.0722 37.3253 34.811 37.2086 34.6184 37.0008C34.4258 36.793 34.3176 36.5111 34.3176 36.2172V29.6384C34.3176 29.3445 34.4258 29.0626 34.6184 28.8548C34.811 28.647 35.0722 28.5303 35.3446 28.5303H41.4421C41.7144 28.5303 41.9757 28.647 42.1683 28.8548C42.3609 29.0626 42.4691 29.3445 42.4691 29.6384V36.2172C42.4691 36.5111 42.3609 36.793 42.1683 37.0008C41.9757 37.2086 41.7144 37.3253 41.4421 37.3253ZM36.3716 35.1091H40.415V30.7465H36.3716V35.1091ZM56.6554 51.0736H50.5579C50.2856 51.0736 50.0243 50.9569 49.8317 50.7491C49.6391 50.5413 49.5309 50.2594 49.5309 49.9655V43.3856C49.5309 43.0917 49.6391 42.8098 49.8317 42.602C50.0243 42.3942 50.2856 42.2775 50.5579 42.2775H56.6554C56.9278 42.2775 57.189 42.3942 57.3816 42.602C57.5742 42.8098 57.6824 43.0917 57.6824 43.3856V49.9655C57.6824 50.2594 57.5742 50.5413 57.3816 50.7491C57.189 50.9569 56.9278 51.0736 56.6554 51.0736ZM51.585 48.8574H55.6284V44.4937H51.585V48.8574ZM41.4421 51.0736H35.3446C35.0722 51.0736 34.811 50.9569 34.6184 50.7491C34.4258 50.5413 34.3176 50.2594 34.3176 49.9655V43.3856C34.3176 43.0917 34.4258 42.8098 34.6184 42.602C34.811 42.3942 35.0722 42.2775 35.3446 42.2775H41.4421C41.7144 42.2775 41.9757 42.3942 42.1683 42.602C42.3609 42.8098 42.4691 43.0917 42.4691 43.3856V49.9655C42.4691 50.2594 42.3609 50.5413 42.1683 50.7491C41.9757 50.9569 41.7144 51.0736 41.4421 51.0736ZM36.3716 48.8574H40.415V44.4937H36.3716V48.8574ZM56.6554 64.8208H50.5579C50.2856 64.8208 50.0243 64.7041 49.8317 64.4963C49.6391 64.2884 49.5309 64.0066 49.5309 63.7127V57.1339C49.5309 56.84 49.6391 56.5581 49.8317 56.3503C50.0243 56.1425 50.2856 56.0258 50.5579 56.0258H56.6554C56.9278 56.0258 57.189 56.1425 57.3816 56.3503C57.5742 56.5581 57.6824 56.84 57.6824 57.1339V63.7127C57.6824 64.0066 57.5742 64.2884 57.3816 64.4963C57.189 64.7041 56.9278 64.8208 56.6554 64.8208ZM51.585 62.6046H55.6284V58.242H51.585V62.6046ZM41.4421 64.8208H35.3446C35.0722 64.8208 34.811 64.7041 34.6184 64.4963C34.4258 64.2884 34.3176 64.0066 34.3176 63.7127V57.1339C34.3176 56.84 34.4258 56.5581 34.6184 56.3503C34.811 56.1425 35.0722 56.0258 35.3446 56.0258H41.4421C41.7144 56.0258 41.9757 56.1425 42.1683 56.3503C42.3609 56.5581 42.4691 56.84 42.4691 57.1339V63.7127C42.4691 64.0066 42.3609 64.2884 42.1683 64.4963C41.9757 64.7041 41.7144 64.8208 41.4421 64.8208ZM36.3716 62.6046H40.415V58.242H36.3716V62.6046ZM56.6554 78.568H50.5579C50.2856 78.568 50.0243 78.4513 49.8317 78.2434C49.6391 78.0356 49.5309 77.7538 49.5309 77.4599V70.8811C49.5309 70.5872 49.6391 70.3053 49.8317 70.0975C50.0243 69.8897 50.2856 69.7729 50.5579 69.7729H56.6554C56.9278 69.7729 57.189 69.8897 57.3816 70.0975C57.5742 70.3053 57.6824 70.5872 57.6824 70.8811V77.4599C57.6824 77.7538 57.5742 78.0356 57.3816 78.2434C57.189 78.4513 56.9278 78.568 56.6554 78.568ZM51.585 76.3518H55.6284V71.9892H51.585V76.3518ZM41.4421 78.568H35.3446C35.0722 78.568 34.811 78.4513 34.6184 78.2434C34.4258 78.0356 34.3176 77.7538 34.3176 77.4599V70.8811C34.3176 70.5872 34.4258 70.3053 34.6184 70.0975C34.811 69.8897 35.0722 69.7729 35.3446 69.7729H41.4421C41.7144 69.7729 41.9757 69.8897 42.1683 70.0975C42.3609 70.3053 42.4691 70.5872 42.4691 70.8811V77.4599C42.4691 77.7538 42.3609 78.0356 42.1683 78.2434C41.9757 78.4513 41.7144 78.568 41.4421 78.568ZM36.3716 76.3518H40.415V71.9892H36.3716V76.3518ZM76.3404 48.1527H68.0379C67.7656 48.1527 67.5043 48.0359 67.3117 47.8281C67.1191 47.6203 67.0109 47.3384 67.0109 47.0445V41.8741C67.0109 41.5802 67.1191 41.2984 67.3117 41.0906C67.5043 40.8827 67.7656 40.766 68.0379 40.766H76.3404C76.6128 40.766 76.874 40.8827 77.0666 41.0906C77.2593 41.2984 77.3675 41.5802 77.3675 41.8741V47.0445C77.3675 47.3384 77.2593 47.6203 77.0666 47.8281C76.874 48.0359 76.6128 48.1527 76.3404 48.1527ZM69.065 45.9364H75.3134V42.9822H69.065V45.9364ZM76.3404 59.2337H68.0379C67.7656 59.2337 67.5043 59.117 67.3117 58.9092C67.1191 58.7014 67.0109 58.4195 67.0109 58.1256V52.9552C67.0109 52.6613 67.1191 52.3794 67.3117 52.1716C67.5043 51.9638 67.7656 51.8471 68.0379 51.8471H76.3404C76.6128 51.8471 76.874 51.9638 77.0666 52.1716C77.2593 52.3794 77.3675 52.6613 77.3675 52.9552V58.1256C77.3675 58.4195 77.2593 58.7014 77.0666 58.9092C76.874 59.117 76.6128 59.2337 76.3404 59.2337ZM69.065 57.0175H75.3134V54.0633H69.065V57.0175ZM76.3404 70.3148H68.0379C67.7656 70.3148 67.5043 70.1981 67.3117 69.9903C67.1191 69.7824 67.0109 69.5006 67.0109 69.2067V64.0363C67.0109 63.7424 67.1191 63.4605 67.3117 63.2527C67.5043 63.0449 67.7656 62.9282 68.0379 62.9282H76.3404C76.6128 62.9282 76.874 63.0449 77.0666 63.2527C77.2593 63.4605 77.3675 63.7424 77.3675 64.0363V69.2067C77.3675 69.5006 77.2593 69.7824 77.0666 69.9903C76.874 70.1981 76.6128 70.3148 76.3404 70.3148ZM69.065 68.0986H75.3134V65.1444H69.065V68.0986ZM76.3404 81.3959H68.0379C67.7656 81.3959 67.5043 81.2791 67.3117 81.0713C67.1191 80.8635 67.0109 80.5817 67.0109 80.2878V75.1174C67.0109 74.8235 67.1191 74.5416 67.3117 74.3338C67.5043 74.126 67.7656 74.0092 68.0379 74.0092H76.3404C76.6128 74.0092 76.874 74.126 77.0666 74.3338C77.2593 74.5416 77.3675 74.8235 77.3675 75.1174V80.2878C77.3675 80.5817 77.2593 80.8635 77.0666 81.0713C76.874 81.2791 76.6128 81.3959 76.3404 81.3959ZM69.065 79.1797H75.3134V76.2255H69.065V79.1797Z" fill="#DBEAFE"/>
</g>
<defs>
<clipPath id="clip0_42_3">
<rect width="450" height="99" fill="white"/>
</clipPath>
</defs>
</svg>
